<?xml version="1.0" standalone="no"?>
<!DOCTYPE svg PUBLIC "-//W3C//DTD SVG 20010904//EN"
 "http://www.w3.org/TR/2001/REC-SVG-20010904/DTD/svg10.dtd">
<svg version="1.0" xmlns="http://www.w3.org/2000/svg"
 width="563.000000pt" height="563.000000pt" viewBox="0 0 563.000000 563.000000"
 preserveAspectRatio="xMidYMid meet">
<metadata>
Created by potrace 1.14, written by Peter Selinger 2001-2017
</metadata>
<g transform="translate(0.000000,563.000000) scale(0.100000,-0.100000)"
fill="#000000" stroke="none">
<path d="M1395 5111 c-125 -35 -211 -86 -310 -186 -74 -74 -98 -105 -132 -176
-108 -223 -95 -468 35 -674 40 -63 171 -188 239 -228 195 -114 450 -118 663
-10 111 56 233 180 288 293 56 114 75 193 76 315 1 181 -60 335 -186 467 -89
93 -169 145 -279 183 -112 38 -287 45 -394 16z"/>
<path d="M3902 5110 c-91 -25 -180 -70 -252 -125 -57 -45 -69 -57 -127 -133
-148 -194 -175 -475 -68 -700 42 -89 109 -178 173 -229 26 -21 49 -40 52 -43
20 -23 179 -91 243 -105 120 -26 277 -17 382 22 203 76 350 226 423 432 25 70
27 88 26 221 0 133 -3 151 -28 218 -37 98 -85 177 -149 242 -99 103 -159 142
-283 186 -108 38 -281 44 -392 14z"/>
<path d="M589 3237 c-102 -43 -158 -100 -202 -208 -20 -50 -22 -69 -20 -245 3
-386 76 -745 219 -1084 82 -195 181 -377 261 -480 131 -170 252 -300 363 -392
261 -216 548 -359 880 -442 415 -102 937 -108 1370 -15 550 119 1040 444 1334
885 33 49 67 101 77 115 18 26 123 234 152 299 76 170 141 390 181 615 35 195
46 320 46 519 0 139 -3 180 -18 217 -40 107 -121 189 -221 224 -65 22 -808 22
-886 0 -136 -40 -245 -183 -245 -322 0 -235 -78 -543 -187 -743 -83 -151 -206
-296 -324 -382 -200 -146 -543 -201 -824 -134 -88 21 -220 81 -290 131 -168
119 -311 311 -389 517 -74 200 -108 352 -121 548 -14 200 -67 296 -205 367
l-55 28 -420 2 c-419 3 -420 3 -476 -20z"/>
</g>
</svg>
